# xmcd
#
# Track frame offsets: 
#        150
#        17249
#        36511
#        76286
#        102656
#        121681
#        144021
#        166321
#        208265
#        230702
#        249040
#
# Disc length: 4477 seconds
#
# Revision: 7
# Processed by: cddbd v1.5.2PL0 Copyright (c) Steve Scherf et al.
# Submitted via: ExactAudioCopyFreeDBPlugin 1.0
#
DISCID=8d117b0b
DTITLE=The Allman Brothers Band - Martin Scorsese Presents the Blues: 
DTITLE=The Allman Brothers
DYEAR=2003
DGENRE=Blues
TTITLE0=Trouble No More
TTITLE1=Done Somebody Wrong (live)
TTITLE2=Stormy Monday (live)
TTITLE3=Can't Lose What You Never Had
TTITLE4=Statesboro Blues (live)
TTITLE5=One Way Out (live)
TTITLE6=Hoochie Coochie Man
TTITLE7=I'm Gonna Move to the Outskirts of Town (live)
TTITLE8=Dimples (live)
TTITLE9=Need Your Love So Bad
TTITLE10=You Don't Love Me (live)
EXTD=
EXTT0=
EXTT1=
EXTT2=
EXTT3=
EXTT4=
EXTT5=
EXTT6=
EXTT7=
EXTT8=
EXTT9=
EXTT10=
PLAYORDER=
